<svg width="80" height="21" viewBox="0 0 80 21" fill="none" xmlns="http://www.w3.org/2000/svg">
<path d="M11.9559 20.328L3.94795 10.024L11.7039 0.560002H17.1359L8.39995 10.836V9.044L17.4159 20.328H11.9559ZM-5.26309e-05 20.328V0.560002H4.39595V20.328H-5.26309e-05ZM23.8584 20.608C22.6077 20.608 21.4877 20.3 20.4984 19.684C19.5277 19.068 18.753 18.228 18.1744 17.164C17.6144 16.1 17.3344 14.8867 17.3344 13.524C17.3344 12.1613 17.6144 10.948 18.1744 9.884C18.753 8.82 19.5277 7.98 20.4984 7.364C21.4877 6.748 22.6077 6.44 23.8584 6.44C24.773 6.44 25.5944 6.61734 26.3224 6.972C27.069 7.32667 27.6757 7.82134 28.1424 8.456C28.609 9.072 28.8704 9.78134 28.9264 10.584V16.464C28.8704 17.2667 28.609 17.9853 28.1424 18.62C27.6944 19.236 27.097 19.7213 26.3504 20.076C25.6037 20.4307 24.773 20.608 23.8584 20.608ZM24.7264 16.744C25.641 16.744 26.3784 16.4453 26.9384 15.848C27.4984 15.232 27.7784 14.4573 27.7784 13.524C27.7784 12.8893 27.6477 12.3293 27.3864 11.844C27.1437 11.3587 26.789 10.9853 26.3224 10.724C25.8744 10.444 25.3517 10.304 24.7544 10.304C24.157 10.304 23.625 10.444 23.1584 10.724C22.7104 10.9853 22.3464 11.3587 22.0664 11.844C21.805 12.3293 21.6744 12.8893 21.6744 13.524C21.6744 14.14 21.805 14.6907 22.0664 15.176C22.3277 15.6613 22.6917 16.044 23.1584 16.324C23.625 16.604 24.1477 16.744 24.7264 16.744ZM27.6104 20.328V16.66L28.2544 13.356L27.6104 10.052V6.72H31.8104V20.328H27.6104ZM34.8267 20.328V6.72H39.1107V20.328H34.8267ZM43.5347 20.328V12.376C43.5347 11.6853 43.32 11.1533 42.8907 10.78C42.48 10.388 41.9667 10.192 41.3507 10.192C40.9214 10.192 40.5387 10.2853 40.2027 10.472C39.8667 10.64 39.596 10.8827 39.3907 11.2C39.204 11.5173 39.1107 11.9093 39.1107 12.376L37.4587 11.648C37.4587 10.5653 37.692 9.64134 38.1587 8.876C38.6254 8.092 39.26 7.49467 40.0627 7.084C40.8654 6.65467 41.7707 6.44 42.7787 6.44C43.7307 6.44 44.58 6.65467 45.3267 7.084C46.092 7.51334 46.6987 8.11067 47.1467 8.876C47.5947 9.64134 47.8187 10.556 47.8187 11.62V20.328H43.5347ZM52.2427 20.328V12.376C52.2427 11.6853 52.028 11.1533 51.5987 10.78C51.188 10.388 50.6747 10.192 50.0587 10.192C49.6294 10.192 49.2467 10.2853 48.9107 10.472C48.5747 10.64 48.304 10.8827 48.0987 11.2C47.912 11.5173 47.8187 11.9093 47.8187 12.376L45.3547 12.04C45.392 10.8827 45.6627 9.89334 46.1667 9.072C46.6894 8.232 47.3707 7.588 48.2107 7.14C49.0694 6.67334 50.0307 6.44 51.0947 6.44C52.14 6.44 53.064 6.664 53.8667 7.112C54.688 7.54134 55.332 8.16667 55.7987 8.988C56.284 9.79067 56.5267 10.7613 56.5267 11.9V20.328H52.2427ZM59.272 20.328V6.72H63.556V20.328H59.272ZM61.428 4.844C60.756 4.844 60.196 4.62 59.748 4.172C59.3187 3.70533 59.104 3.14533 59.104 2.492C59.104 1.82 59.3187 1.26 59.748 0.812002C60.196 0.364002 60.756 0.140002 61.428 0.140002C62.1 0.140002 62.6507 0.364002 63.08 0.812002C63.5093 1.26 63.724 1.82 63.724 2.492C63.724 3.14533 63.5093 3.70533 63.08 4.172C62.6507 4.62 62.1 4.844 61.428 4.844ZM66.5728 20.328V2.6226e-06H70.8568V20.328H66.5728Z" fill="#054431"/>
<path d="M76.5616 20.636C75.8336 20.636 75.2269 20.384 74.7416 19.88C74.2562 19.376 74.0136 18.7693 74.0136 18.06C74.0136 17.3133 74.2562 16.6973 74.7416 16.212C75.2269 15.708 75.8336 15.456 76.5616 15.456C77.3082 15.456 77.9149 15.708 78.3816 16.212C78.8669 16.6973 79.1096 17.3133 79.1096 18.06C79.1096 18.7693 78.8669 19.376 78.3816 19.88C77.9149 20.384 77.3082 20.636 76.5616 20.636Z" fill="#00BA85"/>
</svg>
